<svg version="1.1" id="Layer_1" xmlns="http://www.w3.org/2000/svg" xmlns:xlink="http://www.w3.org/1999/xlink" x="0px" y="0px"
	 width="100%" viewBox="0 0 314 178" enable-background="new 0 0 314 178" xml:space="preserve">
<path fill="#FDFDFD" opacity="1.000000" stroke="none" 
	d="
M235.000000,179.000000 
	C156.666672,179.000000 78.833351,179.000000 1.000021,179.000000 
	C1.000014,119.666679 1.000014,60.333366 1.000007,1.000037 
	C105.666634,1.000025 210.333267,1.000025 314.999939,1.000012 
	C314.999939,60.333298 314.999939,119.666595 314.999969,178.999939 
	C288.500000,179.000000 262.000000,179.000000 235.000000,179.000000 
M235.928223,136.887253 
	C231.218063,139.648987 231.398315,143.926132 232.919830,148.160355 
	C234.574814,152.766037 238.775787,152.433960 242.598938,151.976990 
	C246.218185,151.544403 247.988052,149.224457 248.233902,145.558014 
	C248.556839,140.741959 247.501892,136.956512 242.200012,135.348785 
	C243.073639,134.154816 243.947266,132.960846 245.167862,131.292679 
	C242.490097,130.970612 241.052200,130.798676 239.614578,130.624573 
	C236.369949,130.231674 235.324585,131.529724 236.437088,134.636368 
	C236.677963,135.309006 236.575531,136.104584 235.928223,136.887253 
M241.664124,55.402962 
	C244.753159,62.863197 247.842209,70.323433 251.062515,78.100685 
	C249.509262,78.209518 248.529251,78.322838 247.547516,78.340240 
	C234.239929,78.576118 234.239868,78.572830 229.834839,90.973038 
	C229.779205,91.129639 229.733765,91.290779 229.666443,91.442177 
	C228.215485,94.705185 229.445374,96.158875 232.842178,96.158394 
	C237.838318,96.157692 242.834473,96.159660 247.830612,96.160942 
	C258.669922,96.163734 258.669922,96.163849 262.893982,106.227486 
	C269.077209,120.958733 269.077209,120.958717 284.805206,120.311066 
	C284.971527,120.304207 285.138214,120.299347 285.304626,120.301750 
	C288.780304,120.351845 289.839600,118.890457 288.414795,115.606712 
	C276.107361,87.241943 263.855164,58.853100 251.450790,30.530872 
	C250.948914,29.384983 249.122299,28.171556 247.863144,28.115936 
	C242.059616,27.859587 236.238434,28.002897 230.353363,28.002897 
	C226.089249,38.065090 221.941864,47.860989 217.787201,57.653820 
	C209.799973,76.480316 201.803406,95.302872 193.822250,114.131943 
	C191.518402,119.567123 191.951828,120.261620 197.624298,120.313568 
	C200.621735,120.341026 203.651962,120.044342 206.609497,120.389763 
	C210.755600,120.873985 212.639847,119.250381 214.193237,115.350288 
	C222.240677,95.145760 230.651947,75.086143 239.665100,54.985897 
	C240.150772,54.974880 240.636444,54.963863 241.664124,55.402962 
M148.393738,120.166611 
	C161.814102,121.782410 174.941910,120.982979 187.811508,115.559212 
	C187.811508,103.446304 187.793594,91.459816 187.824707,79.473457 
	C187.832062,76.643547 186.388428,75.688133 183.743942,75.752441 
	C180.079559,75.841553 176.391830,76.007652 172.749893,75.707085 
	C168.647232,75.368492 167.546875,77.107819 167.677094,80.942215 
	C167.912659,87.878571 167.743790,94.828667 167.743790,101.590714 
	C150.914383,106.249443 136.195129,99.552544 132.676285,85.220604 
	C131.166718,79.072243 130.922729,72.275345 131.710144,65.973831 
	C133.178406,54.223434 140.275604,47.840225 151.997116,45.905800 
	C162.250626,44.213646 172.239197,45.278446 182.006668,48.704922 
	C187.024673,50.465263 187.767731,49.958080 187.821167,44.541790 
	C187.845825,42.042206 187.459808,39.479637 187.886246,37.055813 
	C188.657211,32.673893 186.340744,31.281487 182.704453,30.284103 
	C168.929428,26.505808 155.042130,25.968414 141.191742,29.287420 
	C124.712433,33.236404 114.441574,43.605122 111.405136,60.463787 
	C110.525505,65.347603 110.184296,70.411819 110.298302,75.377220 
	C110.899292,101.552635 123.459038,116.511604 148.393738,120.166611 
M62.985947,55.500000 
	C62.985825,47.833572 62.924259,40.166412 63.015331,32.501068 
	C63.052586,29.365168 61.853870,27.864563 58.602947,27.977640 
	C55.107319,28.099228 51.592175,28.185886 48.107498,27.955614 
	C44.233704,27.699627 42.863087,29.094036 42.901478,33.097263 
	C43.078865,51.595016 42.976273,70.095444 42.977043,88.594910 
	C42.977463,98.670815 40.812855,101.379288 30.675140,102.112183 
	C25.596243,102.479355 23.732525,104.121254 24.033138,109.386703 
	C24.682594,120.762383 21.327372,121.412865 35.956955,119.775055 
	C51.491272,118.035957 63.866924,111.016548 63.056976,89.496361 
	C62.643574,78.512245 62.985451,67.499695 62.985947,55.500000 
M78.323868,76.499863 
	C78.323860,86.482132 78.323929,96.464394 78.323822,106.446663 
	C78.323677,120.369186 78.326996,120.180527 92.190956,120.427643 
	C96.930763,120.512123 98.514969,119.224617 98.468201,114.313904 
	C98.238480,90.192276 98.364128,66.067268 98.364227,41.943455 
	C98.364281,27.876673 98.362022,28.061975 84.132774,27.892384 
	C79.327057,27.835106 78.184761,29.680069 78.248573,34.074505 
	C78.449074,47.880405 78.323318,61.691044 78.323868,76.499863 
M84.527817,155.379623 
	C89.440720,157.019073 93.722610,155.891373 97.151436,152.116684 
	C100.318268,148.630402 100.961700,144.486893 99.290802,140.088440 
	C97.423897,135.174026 92.899178,132.387177 87.562935,132.712723 
	C82.431679,133.025787 78.045021,136.739655 76.981781,141.671005 
	C75.759872,147.338287 77.928139,151.631760 84.527817,155.379623 
M268.025787,149.598465 
	C266.986237,149.173630 265.980652,148.589828 264.899658,148.358887 
	C262.978180,147.948395 261.011017,147.751694 259.062958,147.465576 
	C259.105194,146.952515 259.147430,146.439453 259.189697,145.926392 
	C262.367096,145.926392 265.544495,145.926392 268.710083,145.926392 
	C269.408722,140.866425 268.613983,137.156189 263.473053,136.275421 
	C259.897308,135.662827 256.067810,135.859268 254.548340,139.861908 
	C253.167557,143.499222 252.924957,147.492783 256.269592,150.491058 
	C258.935333,152.880692 264.950745,152.743988 268.025787,149.598465 
M219.207596,145.254166 
	C218.469131,138.604919 223.606354,140.225189 228.802719,139.821960 
	C226.981430,137.992432 226.149017,136.399918 225.154282,136.291092 
	C221.338394,135.873596 217.317276,135.734177 215.070862,139.803513 
	C212.906036,143.725098 214.369171,148.081482 219.131897,152.713654 
	C218.607254,154.352295 218.087662,155.975159 217.544937,157.670288 
	C225.257965,158.983795 226.621368,157.825943 225.013306,153.413269 
	C226.201187,151.492065 226.980728,150.231293 227.372101,149.598297 
	C224.181946,148.154114 221.834320,147.091354 219.207596,145.254166 
M176.122818,147.509567 
	C176.233536,146.197113 176.474579,144.880417 176.431946,143.572968 
	C176.263885,138.418503 173.856186,136.118942 168.675385,136.035065 
	C163.471130,135.950790 160.696854,138.200165 160.338104,143.084900 
	C160.070953,146.722565 160.643692,150.440460 164.667145,151.580490 
	C168.843964,152.763962 173.284515,153.139374 176.122818,147.509567 
M204.093994,145.166031 
	C203.060043,146.172226 202.026077,147.178406 200.992111,148.184586 
	C200.317200,147.082977 199.305115,146.053436 199.050446,144.862000 
	C198.711685,143.277115 198.845490,141.556213 198.984039,139.911255 
	C199.318436,135.941391 197.521729,135.413666 194.104156,136.787033 
	C194.104156,140.350464 193.993179,143.817902 194.137299,147.274719 
	C194.265503,150.349686 195.825272,152.256073 199.147217,152.147644 
	C202.293106,152.044968 205.436676,151.871277 208.730408,151.722061 
	C208.730408,146.729645 208.730408,141.655945 208.730408,136.180634 
	C207.112488,136.272263 205.759476,136.348892 204.099411,136.442902 
	C204.099411,139.328644 204.099411,141.791916 204.093994,145.166031 
M142.020142,149.236969 
	C143.313782,154.618820 147.627487,151.950882 150.484283,151.926071 
	C152.054520,151.912430 154.697067,149.532608 154.971909,147.902039 
	C156.186874,140.693802 149.412308,143.071426 146.091431,140.470856 
	C148.794769,140.470856 151.498108,140.470856 154.201447,140.470856 
	C154.469238,139.973587 154.737015,139.476318 155.004791,138.979050 
	C153.834686,138.023880 152.718460,136.341934 151.484344,136.250458 
	C147.851761,135.981232 143.143219,134.641342 141.613724,139.462036 
	C139.243988,146.931030 146.510422,145.426758 150.517868,146.864761 
	C150.320663,147.363937 150.123444,147.863113 149.926224,148.362289 
	C147.338531,148.362289 144.750839,148.362289 142.020142,149.236969 
M278.782257,146.058914 
	C280.186768,146.266647 281.591278,146.474396 282.995789,146.682144 
	C282.939301,147.146194 282.882812,147.610229 282.826355,148.074280 
	C280.359131,148.074280 277.891907,148.074280 275.424683,148.074280 
	C275.106415,148.448532 274.788147,148.822784 274.469910,149.197021 
	C275.676361,150.176270 276.834076,151.910995 278.098480,151.992615 
	C281.842987,152.234390 286.866455,153.823380 287.905609,148.177536 
	C289.226135,141.002914 282.650818,142.817245 278.992828,140.542664 
	C281.663666,140.542664 284.334503,140.542664 287.005341,140.542664 
	C287.260803,139.964966 287.516296,139.387268 287.771790,138.809586 
	C286.408783,137.891022 285.099823,136.301636 283.672089,136.186630 
	C280.162628,135.903915 275.903198,135.004562 274.351196,139.647812 
	C273.347870,142.649506 274.273010,145.280518 278.782257,146.058914 
M182.871872,146.401077 
	C182.871872,148.169678 182.871872,149.938278 182.871872,151.706894 
	C183.409485,152.036926 183.947113,152.366959 184.484726,152.697006 
	C185.434738,151.496338 187.127319,150.341461 187.204636,149.086990 
	C187.518738,143.991043 187.193756,138.859131 187.386169,133.751099 
	C187.526108,130.035385 185.674347,130.238068 182.872818,130.965744 
	C182.872818,135.907425 182.872818,140.667389 182.871872,146.401077 
z"/>
<path fill="#050505" opacity="1.000000" stroke="none" 
	d="
M147.957520,120.121727 
	C123.459038,116.511604 110.899292,101.552635 110.298302,75.377220 
	C110.184296,70.411819 110.525505,65.347603 111.405136,60.463787 
	C114.441574,43.605122 124.712433,33.236404 141.191742,29.287420 
	C155.042130,25.968414 168.929428,26.505808 182.704453,30.284103 
	C186.340744,31.281487 188.657211,32.673893 187.886246,37.055813 
	C187.459808,39.479637 187.845825,42.042206 187.821167,44.541790 
	C187.767731,49.958080 187.024673,50.465263 182.006668,48.704922 
	C172.239197,45.278446 162.250626,44.213646 151.997116,45.905800 
	C140.275604,47.840225 133.178406,54.223434 131.710144,65.973831 
	C130.922729,72.275345 131.166718,79.072243 132.676285,85.220604 
	C136.195129,99.552544 150.914383,106.249443 167.743790,101.590714 
	C167.743790,94.828667 167.912659,87.878571 167.677094,80.942215 
	C167.546875,77.107819 168.647232,75.368492 172.749893,75.707085 
	C176.391830,76.007652 180.079559,75.841553 183.743942,75.752441 
	C186.388428,75.688133 187.832062,76.643547 187.824707,79.473457 
	C187.793594,91.459816 187.811508,103.446304 187.811508,115.559212 
	C174.941910,120.982979 161.814102,121.782410 147.957520,120.121727 
z"/>
<path fill="#050505" opacity="1.000000" stroke="none" 
	d="
M238.936401,54.976013 
	C230.651947,75.086143 222.240677,95.145760 214.193237,115.350288 
	C212.639847,119.250381 210.755600,120.873985 206.609497,120.389763 
	C203.651962,120.044342 200.621735,120.341026 197.624298,120.313568 
	C191.951828,120.261620 191.518402,119.567123 193.822250,114.131943 
	C201.803406,95.302872 209.799973,76.480316 217.787201,57.653820 
	C221.941864,47.860989 226.089249,38.065090 230.353363,28.002897 
	C236.238434,28.002897 242.059616,27.859587 247.863144,28.115936 
	C249.122299,28.171556 250.948914,29.384983 251.450790,30.530872 
	C263.855164,58.853100 276.107361,87.241943 288.414795,115.606712 
	C289.839600,118.890457 288.780304,120.351845 285.304626,120.301750 
	C285.138214,120.299347 284.971527,120.304207 284.805206,120.311066 
	C269.077209,120.958717 269.077209,120.958733 262.893982,106.227486 
	C258.669922,96.163849 258.669922,96.163734 247.830612,96.160942 
	C242.834473,96.159660 237.838318,96.157692 232.842178,96.158394 
	C229.445374,96.158875 228.215485,94.705185 229.666443,91.442177 
	C229.733765,91.290779 229.779205,91.129639 229.834839,90.973038 
	C234.239868,78.572830 234.239929,78.576118 247.547516,78.340240 
	C248.529251,78.322838 249.509262,78.209518 251.062515,78.100685 
	C247.842209,70.323433 244.753159,62.863197 241.376617,54.807301 
	C240.700790,53.792828 240.312469,53.374016 239.924164,52.955200 
	C239.594910,53.628803 239.265656,54.302406 238.936401,54.976013 
z"/>
<path fill="#040404" opacity="1.000000" stroke="none" 
	d="
M62.985947,56.000000 
	C62.985451,67.499695 62.643574,78.512245 63.056976,89.496361 
	C63.866924,111.016548 51.491272,118.035957 35.956955,119.775055 
	C21.327372,121.412865 24.682594,120.762383 24.033138,109.386703 
	C23.732525,104.121254 25.596243,102.479355 30.675140,102.112183 
	C40.812855,101.379288 42.977463,98.670815 42.977043,88.594910 
	C42.976273,70.095444 43.078865,51.595016 42.901478,33.097263 
	C42.863087,29.094036 44.233704,27.699627 48.107498,27.955614 
	C51.592175,28.185886 55.107319,28.099228 58.602947,27.977640 
	C61.853870,27.864563 63.052586,29.365168 63.015331,32.501068 
	C62.924259,40.166412 62.985825,47.833572 62.985947,56.000000 
z"/>
<path fill="#060606" opacity="1.000000" stroke="none" 
	d="
M78.323883,75.999855 
	C78.323318,61.691044 78.449074,47.880405 78.248573,34.074505 
	C78.184761,29.680069 79.327057,27.835106 84.132774,27.892384 
	C98.362022,28.061975 98.364281,27.876673 98.364227,41.943455 
	C98.364128,66.067268 98.238480,90.192276 98.468201,114.313904 
	C98.514969,119.224617 96.930763,120.512123 92.190956,120.427643 
	C78.326996,120.180527 78.323677,120.369186 78.323822,106.446663 
	C78.323929,96.464394 78.323860,86.482132 78.323883,75.999855 
z"/>
<path fill="#070707" opacity="1.000000" stroke="none" 
	d="
M84.152481,155.253174 
	C77.928139,151.631760 75.759872,147.338287 76.981781,141.671005 
	C78.045021,136.739655 82.431679,133.025787 87.562935,132.712723 
	C92.899178,132.387177 97.423897,135.174026 99.290802,140.088440 
	C100.961700,144.486893 100.318268,148.630402 97.151436,152.116684 
	C93.722610,155.891373 89.440720,157.019073 84.152481,155.253174 
z"/>
<path fill="#1B1B1B" opacity="1.000000" stroke="none" 
	d="
M268.019623,150.043060 
	C264.950745,152.743988 258.935333,152.880692 256.269592,150.491058 
	C252.924957,147.492783 253.167557,143.499222 254.548340,139.861908 
	C256.067810,135.859268 259.897308,135.662827 263.473053,136.275421 
	C268.613983,137.156189 269.408722,140.866425 268.710083,145.926392 
	C265.544495,145.926392 262.367096,145.926392 259.189697,145.926392 
	C259.147430,146.439453 259.105194,146.952515 259.062958,147.465576 
	C261.011017,147.751694 262.978180,147.948395 264.899658,148.358887 
	C265.980652,148.589828 266.986237,149.173630 268.019623,150.043060 
z"/>
<path fill="#181818" opacity="1.000000" stroke="none" 
	d="
M219.347137,145.641373 
	C221.834320,147.091354 224.181946,148.154114 227.372101,149.598297 
	C226.980728,150.231293 226.201187,151.492065 225.013306,153.413269 
	C226.621368,157.825943 225.257965,158.983795 217.544937,157.670288 
	C218.087662,155.975159 218.607254,154.352295 219.131897,152.713654 
	C214.369171,148.081482 212.906036,143.725098 215.070862,139.803513 
	C217.317276,135.734177 221.338394,135.873596 225.154282,136.291092 
	C226.149017,136.399918 226.981430,137.992432 228.802719,139.821960 
	C223.606354,140.225189 218.469131,138.604919 219.347137,145.641373 
z"/>
<path fill="#131313" opacity="1.000000" stroke="none" 
	d="
M176.013809,147.885864 
	C173.284515,153.139374 168.843964,152.763962 164.667145,151.580490 
	C160.643692,150.440460 160.070953,146.722565 160.338104,143.084900 
	C160.696854,138.200165 163.471130,135.950790 168.675385,136.035065 
	C173.856186,136.118942 176.263885,138.418503 176.431946,143.572968 
	C176.474579,144.880417 176.233536,146.197113 176.013809,147.885864 
M165.769974,141.268921 
	C165.671585,143.020737 165.035431,144.973480 165.597717,146.478470 
	C166.497345,148.886337 168.924194,149.778427 170.548767,147.483505 
	C171.558228,146.057495 171.566025,143.395264 170.992752,141.620880 
	C170.743912,140.850616 167.901779,140.918182 165.769974,141.268921 
z"/>
<path fill="#1B1B1B" opacity="1.000000" stroke="none" 
	d="
M204.096710,144.710602 
	C204.099411,141.791916 204.099411,139.328644 204.099411,136.442902 
	C205.759476,136.348892 207.112488,136.272263 208.730408,136.180634 
	C208.730408,141.655945 208.730408,146.729645 208.730408,151.722061 
	C205.436676,151.871277 202.293106,152.044968 199.147217,152.147644 
	C195.825272,152.256073 194.265503,150.349686 194.137299,147.274719 
	C193.993179,143.817902 194.104156,140.350464 194.104156,136.787033 
	C197.521729,135.413666 199.318436,135.941391 198.984039,139.911255 
	C198.845490,141.556213 198.711685,143.277115 199.050446,144.862000 
	C199.305115,146.053436 200.317200,147.082977 200.992111,148.184586 
	C202.026077,147.178406 203.060043,146.172226 204.096710,144.710602 
z"/>
<path fill="#1B1B1B" opacity="1.000000" stroke="none" 
	d="
M142.091644,148.799622 
	C144.750839,148.362289 147.338531,148.362289 149.926224,148.362289 
	C150.123444,147.863113 150.320663,147.363937 150.517868,146.864761 
	C146.510422,145.426758 139.243988,146.931030 141.613724,139.462036 
	C143.143219,134.641342 147.851761,135.981232 151.484344,136.250458 
	C152.718460,136.341934 153.834686,138.023880 155.004791,138.979050 
	C154.737015,139.476318 154.469238,139.973587 154.201447,140.470856 
	C151.498108,140.470856 148.794769,140.470856 146.091431,140.470856 
	C149.412308,143.071426 156.186874,140.693802 154.971909,147.902039 
	C154.697067,149.532608 152.054520,151.912430 150.484283,151.926071 
	C147.627487,151.950882 143.313782,154.618820 142.091644,148.799622 
z"/>
<path fill="#191919" opacity="1.000000" stroke="none" 
	d="
M278.357483,146.036957 
	C274.273010,145.280518 273.347870,142.649506 274.351196,139.647812 
	C275.903198,135.004562 280.162628,135.903915 283.672089,136.186630 
	C285.099823,136.301636 286.408783,137.891022 287.771790,138.809586 
	C287.516296,139.387268 287.260803,139.964966 287.005341,140.542664 
	C284.334503,140.542664 281.663666,140.542664 278.992828,140.542664 
	C282.650818,142.817245 289.226135,141.002914 287.905609,148.177536 
	C286.866455,153.823380 281.842987,152.234390 278.098480,151.992615 
	C276.834076,151.910995 275.676361,150.176270 274.469910,149.197021 
	C274.788147,148.822784 275.106415,148.448532 275.424683,148.074280 
	C277.891907,148.074280 280.359131,148.074280 282.826355,148.074280 
	C282.882812,147.610229 282.939301,147.146194 282.995789,146.682144 
	C281.591278,146.474396 280.186768,146.266647 278.357483,146.036957 
z"/>
<path fill="#151515" opacity="1.000000" stroke="none" 
	d="
M241.996460,136.008652 
	C247.501892,136.956512 248.556839,140.741959 248.233902,145.558014 
	C247.988052,149.224457 246.218185,151.544403 242.598938,151.976990 
	C238.775787,152.433960 234.574814,152.766037 232.919830,148.160355 
	C231.398315,143.926132 231.218063,139.648987 236.691467,136.924194 
	C238.968613,136.643631 240.482544,136.326141 241.996460,136.008652 
M237.064346,142.709656 
	C237.194565,147.509216 239.341736,149.976166 241.744827,148.041473 
	C242.821548,147.174606 243.610550,145.220734 243.512650,143.831863 
	C243.416779,142.472168 242.280334,140.548660 241.125549,140.102676 
	C240.204147,139.746811 238.568481,141.240280 237.064346,142.709656 
z"/>
<path fill="#020202" opacity="1.000000" stroke="none" 
	d="
M182.872345,145.914215 
	C182.872818,140.667389 182.872818,135.907425 182.872818,130.965744 
	C185.674347,130.238068 187.526108,130.035385 187.386169,133.751099 
	C187.193756,138.859131 187.518738,143.991043 187.204636,149.086990 
	C187.127319,150.341461 185.434738,151.496338 184.484726,152.697006 
	C183.947113,152.366959 183.409485,152.036926 182.871872,151.706894 
	C182.871872,149.938278 182.871872,148.169678 182.872345,145.914215 
z"/>
<path fill="#262626" opacity="1.000000" stroke="none" 
	d="
M242.098236,135.678711 
	C240.482544,136.326141 238.968613,136.643631 237.042969,136.902328 
	C236.575531,136.104584 236.677963,135.309006 236.437088,134.636368 
	C235.324585,131.529724 236.369949,130.231674 239.614578,130.624573 
	C241.052200,130.798676 242.490097,130.970612 245.167862,131.292679 
	C243.947266,132.960846 243.073639,134.154816 242.098236,135.678711 
z"/>
<path fill="#F3F3F3" opacity="1.000000" stroke="none" 
	d="
M239.300751,54.980957 
	C239.265656,54.302406 239.594910,53.628803 239.924164,52.955200 
	C240.312469,53.374016 240.700790,53.792828 241.105606,54.582245 
	C240.636444,54.963863 240.150772,54.974880 239.300751,54.980957 
z"/>
<path fill="#E3E3E3" opacity="1.000000" stroke="none" 
	d="
M166.003754,140.937073 
	C167.901779,140.918182 170.743912,140.850616 170.992752,141.620880 
	C171.566025,143.395264 171.558228,146.057495 170.548767,147.483505 
	C168.924194,149.778427 166.497345,148.886337 165.597717,146.478470 
	C165.035431,144.973480 165.671585,143.020737 166.003754,140.937073 
z"/>
<path fill="#E6E6E6" opacity="1.000000" stroke="none" 
	d="
M237.157104,142.311264 
	C238.568481,141.240280 240.204147,139.746811 241.125549,140.102676 
	C242.280334,140.548660 243.416779,142.472168 243.512650,143.831863 
	C243.610550,145.220734 242.821548,147.174606 241.744827,148.041473 
	C239.341736,149.976166 237.194565,147.509216 237.157104,142.311264 
z"/>
</svg>